<?xml version="1.0" encoding="utf-8"?>
<!-- Svg Vector Icons : http://www.onlinewebfonts.com/icon -->
<!DOCTYPE svg PUBLIC "-//W3C//DTD SVG 1.1//EN" "http://www.w3.org/Graphics/SVG/1.1/DTD/svg11.dtd">
<svg version="1.1" xmlns="http://www.w3.org/2000/svg" xmlns:xlink="http://www.w3.org/1999/xlink" x="0px" y="0px" viewBox="0 0 256 256" enable-background="new 0 0 256 256" xml:space="preserve">
<metadata> Svg Vector Icons : http://www.onlinewebfonts.com/icon </metadata>
<g><g><g><path fill="#000000" d="M205.4,62c-23.9-18.8-46.7-18.7-69.9-1.5c-23.9,17.7-66.7,3.7-71.6-24.8c-2.2-13-5.8-11.4-13.2-5.9C40.5,37.5,31,40.6,22,28.1c-2.5-3.4-5.2-2.8-8.6-0.4c-3.3,2.4-4.1,4.7-3.1,8.5c4.1,16.6,6.5,34,20.3,46.3c3.4,3,5.1,7,2.8,9.8c-15,18.1,0.3,26.5,11.5,35.5c6.4,5.1,10.7,9.3,11.6,18.5c0.6,5.6,2.5,19,11.4,17.1c19.1-4,22.2,9.6,30.2,20.6c10.8,14.9,27.4,27.1,45.2,26.2c14.6-0.7,24.7-10.3,35.9,10.3c6,11.1,30.2,6.3,46.1,9.5c10.3,2.1,4.4-11.1,10.2-14.4c1-0.6,1.9-1.3,2.8-1.9c4.4-3.2,8.4-15.9,7.6-21c-0.7-4.6-3.4-6.1-6.7-8.5c-10.2-7.3-22.3-14.8-7.8-29.2c2.8-2.9,4.2-9-0.4-10c-15.8-3.6-8.6-16.8-11.4-25.5c-4-12.7,6.8-23.1,7.3-38.9C229.9,67.1,213.3,68.2,205.4,62z"/></g><g></g><g></g><g></g><g></g><g></g><g></g><g></g><g></g><g></g><g></g><g></g><g></g><g></g><g></g><g></g></g></g>
</svg>